# xmcd
#
# Track frame offsets:
#	150
#	39930
#	61834
#	141892
#	169353
#	207315
#	248679
#	286901
#
# Disc length: 4155 seconds
#
# Revision: 0
# Processed by: cddbd v1.5.2PL0 Copyright (c) Steve Scherf et al.
# Submitted via: audiograbber 1.83.01
#
DISCID=6f103908
DTITLE=Grateful Dead - 86-06-21 Greek Theatre, Berkeley CA
DYEAR=1900
DGENRE=
TTITLE0=He's Gone
TTITLE1=Smokestack Lightning
TTITLE2=Drums > Space > Other One Jam
TTITLE3=The Other One
TTITLE4=Wharf Rat
TTITLE5=Throwing Stones
TTITLE6=Not Fade Away
TTITLE7=Not Fade Away > Brokedown Palace
EXTD=
EXTT0=
EXTT1=
EXTT2=
EXTT3=
EXTT4=
EXTT5=
EXTT6=
EXTT7=
PLAYORDER=
